HIERARCHY
ROOT hip
{
OFFSET 0.20 91.84 -1.10
CHANNELS 6 Xposition Yposition Zposition Zrotation Xrotation Yrotation
JOINT abdomen
{
OFFSET 0 7.23 0
CHANNELS 6 Xposition Yposition Zposition Zrotation Xrotation Yrotation
JOINT chest
{
OFFSET 0 16.54 0
CHANNELS 6 Xposition Yposition Zposition Zrotation Xrotation Yrotation
JOINT neck
{
OFFSET 0 34.21 0
CHANNELS 6 Xposition Yposition Zposition Zrotation Xrotation Yrotation
JOINT head
{
OFFSET 0 6.29 0
CHANNELS 6 Xposition Yposition Zposition Zrotation Xrotation Yrotation
End Site
{
OFFSET 0 21.21 0
}
}
}
JOINT lCollar
{
OFFSET 4.06 26.61 -1.12
CHANNELS 6 Xposition Yposition Zposition Zrotation Xrotation Yrotation
JOINT lShldr
{
OFFSET 14.17 0 0
CHANNELS 6 Xposition Yposition Zposition Zrotation Xrotation Yrotation
JOINT lForeArm
{
OFFSET 26.12 0 0
CHANNELS 6 Xposition Yposition Zposition Zrotation Xrotation Yrotation
JOINT lHand
{
OFFSET 27.71 0 0
CHANNELS 6 Xposition Yposition Zposition Zrotation Xrotation Yrotation
JOINT lThumb1
{
OFFSET 2.29 -0.46 1.83
CHANNELS 6 Xposition Yposition Zposition Zrotation Xrotation Yrotation
JOINT lThumb2
{
OFFSET 5.29 0 0
CHANNELS 6 Xposition Yposition Zposition Zrotation Xrotation Yrotation
JOINT lThumb3
{
OFFSET 3.01 0 0
CHANNELS 6 Xposition Yposition Zposition Zrotation Xrotation Yrotation
End Site
{
OFFSET 2.62 0 0
}
}
}
}
JOINT lIndex1
{
OFFSET 9.37 0.29 2.59
CHANNELS 6 Xposition Yposition Zposition Zrotation Xrotation Yrotation
JOINT lIndex2
{
OFFSET 4.34 0 0
CHANNELS 6 Xposition Yposition Zposition Zrotation Xrotation Yrotation
JOINT lIndex3
{
OFFSET 2.16 0 0
CHANNELS 6 Xposition Yposition Zposition Zrotation Xrotation Yrotation
End Site
{
OFFSET 2.20 0 0
}
}
}
}
JOINT lMid1
{
OFFSET 9.47 0.83 0.29
CHANNELS 6 Xposition Yposition Zposition Zrotation Xrotation Yrotation
JOINT lMid2
{
OFFSET 4.77 0 0
CHANNELS 6 Xposition Yposition Zposition Zrotation Xrotation Yrotation
JOINT lMid3
{
OFFSET 2.87 0 0
CHANNELS 6 Xposition Yposition Zposition Zrotation Xrotation Yrotation
End Site
{
OFFSET 2.09 0 0
}
}
}
}
JOINT lRing1
{
OFFSET 8.65 1.01 -1.70
CHANNELS 6 Xposition Yposition Zposition Zrotation Xrotation Yrotation
JOINT lRing2
{
OFFSET 4.54 0 0
CHANNELS 6 Xposition Yposition Zposition Zrotation Xrotation Yrotation
JOINT lRing3
{
OFFSET 2.50 0 0
CHANNELS 6 Xposition Yposition Zposition Zrotation Xrotation Yrotation
End Site
{
OFFSET 2.20 0 0
}
}
}
}
JOINT lPinky1
{
OFFSET 7.69 0.66 -3.90
CHANNELS 6 Xposition Yposition Zposition Zrotation Xrotation Yrotation
JOINT lPinky2
{
OFFSET 3.21 0 0
CHANNELS 6 Xposition Yposition Zposition Zrotation Xrotation Yrotation
JOINT lPinky3
{
OFFSET 1.92 0 0
CHANNELS 6 Xposition Yposition Zposition Zrotation Xrotation Yrotation
End Site
{
OFFSET 1.78 0 0
}
}
}
}
}
}
}
}
JOINT rCollar
{
OFFSET -4.06 26.61 -1.12
CHANNELS 6 Xposition Yposition Zposition Zrotation Xrotation Yrotation
JOINT rShldr
{
OFFSET -14.17 0 0
CHANNELS 6 Xposition Yposition Zposition Zrotation Xrotation Yrotation
JOINT rForeArm
{
OFFSET -26.12 0 0
CHANNELS 6 Xposition Yposition Zposition Zrotation Xrotation Yrotation
JOINT rHand
{
OFFSET -27.71 0 0
CHANNELS 6 Xposition Yposition Zposition Zrotation Xrotation Yrotation
JOINT rThumb1
{
OFFSET -2.29 -0.46 1.83
CHANNELS 6 Xposition Yposition Zposition Zrotation Xrotation Yrotation
JOINT rThumb2
{
OFFSET -5.29 0 0
CHANNELS 6 Xposition Yposition Zposition Zrotation Xrotation Yrotation
JOINT rThumb3
{
OFFSET -3.01 0 0
CHANNELS 6 Xposition Yposition Zposition Zrotation Xrotation Yrotation
End Site
{
OFFSET -2.62 0 0
}
}
}
}
JOINT rIndex1
{
OFFSET -9.37 0.29 2.59
CHANNELS 6 Xposition Yposition Zposition Zrotation Xrotation Yrotation
JOINT rIndex2
{
OFFSET -4.34 0 0
CHANNELS 6 Xposition Yposition Zposition Zrotation Xrotation Yrotation
JOINT rIndex3
{
OFFSET -2.16 0 0
CHANNELS 6 Xposition Yposition Zposition Zrotation Xrotation Yrotation
End Site
{
OFFSET -2.20 0 0
}
}
}
}
JOINT rMid1
{
OFFSET -9.47 0.83 0.29
CHANNELS 6 Xposition Yposition Zposition Zrotation Xrotation Yrotation
JOINT rMid2
{
OFFSET -4.77 0 0
CHANNELS 6 Xposition Yposition Zposition Zrotation Xrotation Yrotation
JOINT rMid3
{
OFFSET -2.87 0 0
CHANNELS 6 Xposition Yposition Zposition Zrotation Xrotation Yrotation
End Site
{
OFFSET -2.09 0 0
}
}
}
}
JOINT rRing1
{
OFFSET -8.65 1.01 -1.70
CHANNELS 6 Xposition Yposition Zposition Zrotation Xrotation Yrotation
JOINT rRing2
{
OFFSET -4.54 0 0
CHANNELS 6 Xposition Yposition Zposition Zrotation Xrotation Yrotation
JOINT rRing3
{
OFFSET -2.50 0 0
CHANNELS 6 Xposition Yposition Zposition Zrotation Xrotation Yrotation
End Site
{
OFFSET -2.20 0 0
}
}
}
}
JOINT rPinky1
{
OFFSET -7.69 0.66 -3.90
CHANNELS 6 Xposition Yposition Zposition Zrotation Xrotation Yrotation
JOINT rPinky2
{
OFFSET -3.21 0 0
CHANNELS 6 Xposition Yposition Zposition Zrotation Xrotation Yrotation
JOINT rPinky3
{
OFFSET -1.92 0 0
CHANNELS 6 Xposition Yposition Zposition Zrotation Xrotation Yrotation
End Site
{
OFFSET -1.78 0 0
}
}
}
}
}
}
}
}
}
}
JOINT lThigh
{
OFFSET 8.73 -0 0
CHANNELS 6 Xposition Yposition Zposition Zrotation Xrotation Yrotation
JOINT lShin
{
OFFSET 0 -46.66 0
CHANNELS 6 Xposition Yposition Zposition Zrotation Xrotation Yrotation
JOINT lFoot
{
OFFSET 0 -40.14 0
CHANNELS 6 Xposition Yposition Zposition Zrotation Xrotation Yrotation
JOINT lToes
{
OFFSET 0 -8.88 14.22
CHANNELS 6 Xposition Yposition Zposition Zrotation Xrotation Yrotation
End Site
{
OFFSET 0 0 6.29
}
}
}
}
}
JOINT rThigh
{
OFFSET -8.73 0 -0
CHANNELS 6 Xposition Yposition Zposition Zrotation Xrotation Yrotation
JOINT rShin
{
OFFSET 0 -46.66 0
CHANNELS 6 Xposition Yposition Zposition Zrotation Xrotation Yrotation
JOINT rFoot
{
OFFSET 0 -40.14 0
CHANNELS 6 Xposition Yposition Zposition Zrotation Xrotation Yrotation
JOINT rToes
{
OFFSET 0 -8.88 14.22
CHANNELS 6 Xposition Yposition Zposition Zrotation Xrotation Yrotation
End Site
{
OFFSET 0 0 6.29
}
}
}
}
}
}
MOTION
Frames: 5
Frame Time: 0.03
0.20 91.84 -1.10 2.14 9.75 -0.80 0 7.23 0 1.32 1.47 1.64 0 16.54 0 0.35 4.81 3.63 0 34.21 0 0.09 30.46 -0.41 0 6.29 0 -5.86 -37.36 -7.66 4.06 26.61 -1.12 -0.88 -2.36 9.45 14.17 0 0 -71.63 33.83 11.04 26.12 0 0 -0.55 0.20 -40.20 27.71 0 0 -16.66 -5.76 -14.01 2.29 -0.46 1.83 57.08 62.52 -76.01 5.29 0 0 -21.63 -0.80 7.67 3.01 0 0 7.41 5.50 18.25 9.37 0.29 2.59 -9.27 -1.81 3.21 4.34 0 0 -59.50 -5.63 10.31 2.16 0 0 -34.67 -2.06 6.19 9.47 0.83 0.29 -19.09 -5.31 4.95 4.77 0 0 -76.57 -11.47 14.61 2.87 0 0 -35.34 -2.63 9.99 8.65 1.01 -1.70 -36.04 -0.41 7.35 4.54 0 0 -93.95 -8.46 7.90 2.50 0 0 -41.54 -1.93 6.17 7.69 0.66 -3.90 -23.75 -10.39 5.85 3.21 0 0 -65.94 -12.06 18.51 1.92 0 0 -76.43 -15.55 21.27 -4.06 26.61 -1.12 -0.02 -2.32 0.72 -14.17 0 0 64.93 13.15 19.57 -26.12 0 0 0.65 0.29 49.04 -27.71 0 0 5.59 -16.36 14.57 -2.29 -0.46 1.83 -56.89 63.13 75.09 -5.29 0 0 24.64 -1.97 -9.33 -3.01 0 0 0.91 4.81 -21.70 -9.37 0.29 2.59 10.04 -1.80 -2.94 -4.34 0 0 58.92 -4.91 -9.18 -2.16 0 0 37.20 -2.11 -5.90 -9.47 0.83 0.29 31.14 -6.27 -6.01 -4.77 0 0 78.85 -11.00 -13.46 -2.87 0 0 38.57 -2.85 -9.78 -8.65 1.01 -1.70 58.31 -3.03 -8.52 -4.54 0 0 75.74 -5.05 -6.49 -2.50 0 0 32.12 -0.97 -4.34 -7.69 0.66 -3.90 66.04 -15.69 -9.34 -3.21 0 0 55.51 -8.20 -15.51 -1.92 0 0 61.38 -9.81 -17.97 8.73 -0 0 -0.70 -29.67 7.41 0 -46.66 0 41.31 80.09 -27.91 0 -40.14 0 -8.75 -4.81 7.64 0 -8.88 14.22 0 0 -0 -8.73 0 -0 0.94 -5.53 -13.48 0 -46.66 0 -10.16 34.18 11.32 0 -40.14 0 2.57 -25.24 -7.80 0 -8.88 14.22 0 0 0 
0.66 94.03 -2.31 3.86 10.16 -2.81 0 7.23 0 0.39 1.02 2.73 0 16.54 0 -1.78 3.87 5.79 0 34.21 0 0.44 30.56 -0.47 0 6.29 0 -4.96 -36.90 -8.18 4.06 26.61 -1.12 -0.34 -2.25 12.58 14.17 0 0 -71.22 35.29 14.61 26.12 0 0 -0.59 0.23 -43.80 27.71 0 0 -19.00 -4.61 -12.99 2.29 -0.46 1.83 57.08 62.52 -76.01 5.29 0 0 -21.63 -0.80 7.67 3.01 0 0 7.41 5.50 18.25 9.37 0.29 2.59 -9.27 -1.81 3.21 4.34 0 0 -59.50 -5.63 10.31 2.16 0 0 -34.67 -2.06 6.19 9.47 0.83 0.29 -19.09 -5.31 4.95 4.77 0 0 -76.57 -11.47 14.61 2.87 0 0 -35.34 -2.63 9.99 8.65 1.01 -1.70 -36.04 -0.41 7.35 4.54 0 0 -93.95 -8.46 7.90 2.50 0 0 -41.54 -1.93 6.17 7.69 0.66 -3.90 -23.75 -10.39 5.85 3.21 0 0 -65.94 -12.06 18.51 1.92 0 0 -76.43 -15.55 21.27 -4.06 26.61 -1.12 -1.52 -2.01 2.76 -14.17 0 0 62.50 16.64 21.30 -26.12 0 0 0.71 0.38 56.37 -27.71 0 0 0.76 -21.21 13.11 -2.29 -0.46 1.83 -54.85 62.07 75.99 -5.29 0 0 26.00 -2.64 -9.84 -3.01 0 0 2.38 4.96 -22.67 -9.37 0.29 2.59 13.33 -1.99 -3.45 -4.34 0 0 60.98 -5.25 -9.37 -2.16 0 0 43.22 -2.82 -6.74 -9.47 0.83 0.29 33.95 -6.58 -6.36 -4.77 0 0 81.23 -11.56 -13.56 -2.87 0 0 40.21 -3.10 -10.08 -8.65 1.01 -1.70 58.87 -3.12 -8.55 -4.54 0 0 80.05 -5.54 -6.59 -2.50 0 0 34.95 -1.16 -4.61 -7.69 0.66 -3.90 66.86 -15.82 -9.38 -3.21 0 0 55.75 -8.26 -15.55 -1.92 0 0 61.72 -9.90 -18.02 8.73 -0 0 -2.38 -34.20 7.65 0 -46.66 0 18.41 74.77 -3.39 0 -40.14 0 -9.99 -6.52 9.01 0 -8.88 14.22 0 0 0 -8.73 0 -0 -0.87 1.75 -15.89 0 -46.66 0 -9.50 23.53 12.40 0 -40.14 0 6.84 -13.52 -5.65 0 -8.88 14.22 0 0 -0 
1.01 95.92 -3.41 5.06 11.01 -4.22 0 7.23 0 -0.41 0.53 3.48 0 16.54 0 -2.98 2.83 7.11 0 34.21 0 0.56 30.42 -0.38 0 6.29 0 -4.06 -36.68 -8.31 4.06 26.61 -1.12 -0.69 -2.07 16.60 14.17 0 0 -70.43 35.16 16.54 26.12 0 0 -0.63 0.28 -47.66 27.71 0 0 -20.84 -2.02 -11.29 2.29 -0.46 1.83 57.08 62.52 -76.01 5.29 0 0 -21.63 -0.80 7.67 3.01 0 0 7.41 5.50 18.25 9.37 0.29 2.59 -9.27 -1.81 3.21 4.34 0 0 -59.50 -5.63 10.31 2.16 0 0 -34.67 -2.06 6.19 9.47 0.83 0.29 -19.09 -5.31 4.95 4.77 0 0 -76.57 -11.47 14.61 2.87 0 0 -35.34 -2.63 9.99 8.65 1.01 -1.70 -36.04 -0.41 7.35 4.54 0 0 -93.95 -8.46 7.90 2.50 0 0 -41.54 -1.93 6.17 7.69 0.66 -3.90 -23.75 -10.39 5.85 3.21 0 0 -65.94 -12.06 18.51 1.92 0 0 -76.43 -15.55 21.27 -4.06 26.61 -1.12 -3.12 -1.50 4.14 -14.17 0 0 58.93 20.80 22.87 -26.12 0 0 0.77 0.48 64.23 -27.71 0 0 -4.50 -25.44 12.69 -2.29 -0.46 1.83 -52.70 60.97 77.20 -5.29 0 0 27.53 -3.42 -10.40 -3.01 0 0 4.06 5.11 -23.75 -9.37 0.29 2.59 16.95 -2.22 -3.99 -4.34 0 0 63.25 -5.63 -9.57 -2.16 0 0 50.01 -3.72 -7.59 -9.47 0.83 0.29 37.11 -6.94 -6.74 -4.77 0 0 83.84 -12.18 -13.65 -2.87 0 0 42.01 -3.38 -10.40 -8.65 1.01 -1.70 59.55 -3.22 -8.60 -4.54 0 0 84.71 -6.08 -6.67 -2.50 0 0 38.01 -1.37 -4.90 -7.69 0.66 -3.90 67.82 -15.97 -9.42 -3.21 0 0 55.94 -8.31 -15.59 -1.92 0 0 61.98 -9.98 -18.07 8.73 -0 0 -3.61 -37.92 7.68 0 -46.66 0 6.53 64.62 7.45 0 -40.14 0 -8.98 -8.14 11.81 0 -8.88 14.22 0 0 0 -8.73 0 -0 -3.05 4.05 -18.53 0 -46.66 0 -8.33 21.90 9.75 0 -40.14 0 9.92 -1.71 -4.32 0 -8.88 14.22 0 0 0 
1.26 97.58 -4.15 5.87 11.66 -4.99 0 7.23 0 -1.39 0.11 3.77 0 16.54 0 -3.96 1.96 7.60 0 34.21 0 1.08 30.24 -0.37 0 6.29 0 -3.14 -36.97 -8.32 4.06 26.61 -1.12 -0.10 -1.89 20.36 14.17 0 0 -69.91 34.21 17.91 26.12 0 0 -0.67 0.32 -51.58 27.71 0 0 -22.49 0.17 -8.10 2.29 -0.46 1.83 57.08 62.52 -76.01 5.29 0 0 -21.63 -0.80 7.67 3.01 0 0 7.41 5.50 18.25 9.37 0.29 2.59 -9.27 -1.81 3.21 4.34 0 0 -59.50 -5.63 10.31 2.16 0 0 -34.67 -2.06 6.19 9.47 0.83 0.29 -19.09 -5.31 4.95 4.77 0 0 -76.57 -11.47 14.61 2.87 0 0 -35.34 -2.63 9.99 8.65 1.01 -1.70 -36.04 -0.41 7.35 4.54 0 0 -93.95 -8.46 7.90 2.50 0 0 -41.54 -1.93 6.17 7.69 0.66 -3.90 -23.75 -10.39 5.85 3.21 0 0 -65.94 -12.06 18.51 1.92 0 0 -76.43 -15.55 21.27 -4.06 26.61 -1.12 -3.77 -1.00 5.65 -14.17 0 0 55.71 25.01 23.77 -26.12 0 0 0.81 0.58 71.47 -27.71 0 0 -10.89 -27.90 12.09 -2.29 -0.46 1.83 -50.82 60.04 78.51 -5.29 0 0 28.98 -4.17 -10.91 -3.01 0 0 5.66 5.23 -24.77 -9.37 0.29 2.59 20.43 -2.48 -4.50 -4.34 0 0 65.43 -6.00 -9.75 -2.16 0 0 56.46 -4.67 -8.30 -9.47 0.83 0.29 40.11 -7.30 -7.08 -4.77 0 0 86.36 -12.77 -13.70 -2.87 0 0 43.74 -3.66 -10.71 -8.65 1.01 -1.70 60.18 -3.32 -8.64 -4.54 0 0 89.22 -6.60 -6.69 -2.50 0 0 40.97 -1.59 -5.17 -7.69 0.66 -3.90 68.73 -16.12 -9.45 -3.21 0 0 56.15 -8.37 -15.63 -1.92 0 0 62.27 -10.07 -18.11 8.73 -0 0 -4.72 -38.49 7.41 0 -46.66 0 1.18 49.26 10.89 0 -40.14 0 -8.18 -6.54 14.25 0 -8.88 14.22 0 0 -0 -8.73 0 -0 -4.45 4.88 -19.84 0 -46.66 0 -7.63 24.14 6.50 0 -40.14 0 4.30 7.81 -5.22 0 -8.88 14.22 0 0 0 
1.21 99.33 -4.18 5.60 12.42 -4.44 0 7.23 0 -1.85 -0.10 3.60 0 16.54 0 -3.99 1.52 7.30 0 34.21 0 1.61 30.10 -0.33 0 6.29 0 -2.23 -37.90 -8.19 4.06 26.61 -1.12 0.33 -1.75 23.03 14.17 0 0 -68.74 33.88 17.47 26.12 0 0 -0.70 0.37 -55.34 27.71 0 0 -22.94 1.46 -7.17 2.29 -0.46 1.83 57.08 62.52 -76.01 5.29 0 0 -21.63 -0.80 7.67 3.01 0 0 7.41 5.50 18.25 9.37 0.29 2.59 -9.27 -1.81 3.21 4.34 0 0 -59.50 -5.63 10.31 2.16 0 0 -34.67 -2.06 6.19 9.47 0.83 0.29 -19.09 -5.31 4.95 4.77 0 0 -76.57 -11.47 14.61 2.87 0 0 -35.34 -2.63 9.99 8.65 1.01 -1.70 -36.04 -0.41 7.35 4.54 0 0 -93.95 -8.46 7.90 2.50 0 0 -41.54 -1.93 6.17 7.69 0.66 -3.90 -23.75 -10.39 5.85 3.21 0 0 -65.94 -12.06 18.51 1.92 0 0 -76.43 -15.55 21.27 -4.06 26.61 -1.12 -3.99 -0.70 7.12 -14.17 0 0 52.23 29.09 23.96 -26.12 0 0 0.84 0.70 79.51 -27.71 0 0 -16.90 -27.46 12.08 -2.29 -0.46 1.83 -49.48 59.41 79.59 -5.29 0 0 30.08 -4.74 -11.29 -3.01 0 0 6.89 5.31 -25.54 -9.37 0.29 2.59 23.27 -2.71 -4.90 -4.34 0 0 67.18 -6.30 -9.88 -2.16 0 0 61.41 -5.44 -8.77 -9.47 0.83 0.29 42.44 -7.59 -7.33 -4.77 0 0 88.42 -13.27 -13.72 -2.87 0 0 45.15 -3.90 -10.95 -8.65 1.01 -1.70 60.59 -3.38 -8.66 -4.54 0 0 93.06 -7.05 -6.68 -2.50 0 0 43.47 -1.79 -5.39 -7.69 0.66 -3.90 69.36 -16.22 -9.48 -3.21 0 0 56.46 -8.46 -15.69 -1.92 0 0 62.72 -10.20 -18.18 8.73 -0 0 -5.13 -35.22 7.07 0 -46.66 0 -1.03 29.20 10.99 0 -40.14 0 -9.02 -2.42 14.95 0 -8.88 14.22 0 0 0 -8.73 0 -0 -3.90 7.54 -19.68 0 -46.66 0 -8.77 23.07 4.07 0 -40.14 0 6.33 16.52 -6.58 0 -8.88 14.22 0 0 0 
